# xmcd CD database file
#
# Track frame offsets:
#	225
#	14646
#	27624
#	38461
#	59836
#	68559
#	84377
#	105362
#	120046
#	125098
#	132340
#	138690
#	148229
#	158056
#	169685
#	185922
#
# Disc length: 2700 seconds
#
# Revision: 0
# Processed by: cddbd v1.5.1PL0 Copyright (c) Steve Scherf et al.
# Submitted via: CDex 1.51
#
DISCID=e70a8910
DTITLE=Louis Armstrong - When The Saints Go Marching In [CD2]
DYEAR=1900
DGENRE=Jazz
TTITLE0=Flee As A Bird and When The Saints...
TTITLE1=West End Blues
TTITLE2=Tiger Rag
TTITLE3=Basin Street Bluas
TTITLE4=Milenberg Joys
TTITLE5=Mahagony Hall Stomp Nr. 1 (slow)
TTITLE6=Where The Blues Was Born In New Orleans
TTITLE7=Farewell To Storyville
TTITLE8=Beale Street Stomp
TTITLE9=Dippermouth Blues Nr. 2 (slow)
TTITLE10=Dippermouth Blues Nr. 1 (fast)
TTITLE11=Shimme Sha Jack
TTITLE12=Ballin' The Jack
TTITLE13=King Porter Stomp
TTITLE14=Mahagony Hall Stomp Nr. 2 (fast)
TTITLE15=The Blues Are Brewing
EXTD=
EXTT0=
EXTT1=
EXTT2=
EXTT3=
EXTT4=
EXTT5=
EXTT6=
EXTT7=
EXTT8=
EXTT9=
EXTT10=
EXTT11=
EXTT12=
EXTT13=
EXTT14=
EXTT15=
PLAYORDER=
